<?xml version="1.0" encoding="UTF-8" standalone="no"?>
<!DOCTYPE svg PUBLIC "-//W3C//DTD SVG 1.1//EN" "http://www.w3.org/Graphics/SVG/1.1/DTD/svg11.dtd">
<svg width="100%" height="100%" viewBox="0 0 500 500" version="1.1" xmlns="http://www.w3.org/2000/svg" xmlns:xlink="http://www.w3.org/1999/xlink" xml:space="preserve" xmlns:serif="http://www.serif.com/" style="fill-rule:evenodd;clip-rule:evenodd;stroke-linejoin:round;stroke-miterlimit:2;">
    <title>base</title>
    <desc>base by Lars Meiertoberens from Noun Project (CC BY 3.0). https://thenounproject.com/browse/icons/term/base/</desc>
    <g transform="matrix(1,0,0,1,-3475,-2665)">
        <g id="Base" transform="matrix(1,0,0,1,3475,2665)">
            <rect x="0" y="0" width="500" height="500" style="fill:none;"/>
            <clipPath id="_clip1">
                <rect x="0" y="0" width="500" height="500"/>
            </clipPath>
            <g clip-path="url(#_clip1)">
                <g transform="matrix(-0.764372,-9.36085e-17,9.36085e-17,-0.764372,999.455,501.753)">
                    <path d="M980.485,5.029C1169.75,5.029 1378.65,366.846 1284.01,530.757C1189.38,694.669 771.59,694.669 676.956,530.757C582.322,366.846 791.217,5.029 980.485,5.029Z" style="fill:rgb(133,133,133);"/>
                </g>
                <g transform="matrix(4.33378,0,0,4.33378,33.3112,6.22995)">
                    <path d="M9.5,59.65L49.5,73.79C49.66,73.85 49.83,73.88 50,73.88C50.17,73.88 50.34,73.85 50.5,73.79L90.5,59.65C91.1,59.44 91.5,58.87 91.5,58.24C91.5,57.61 91.1,57.04 90.5,56.83L77.86,52.36L85.5,49.66C86.1,49.45 86.5,48.88 86.5,48.25C86.5,47.62 86.1,47.05 85.5,46.84L72.86,42.37L80.5,39.67C81.1,39.46 81.5,38.89 81.5,38.26C81.5,37.63 81.1,37.06 80.5,36.85L50.5,26.24C50.18,26.13 49.82,26.13 49.5,26.24L19.5,36.85C18.9,37.06 18.5,37.63 18.5,38.26C18.5,38.89 18.9,39.46 19.5,39.67L27.14,42.37L14.5,46.84C13.9,47.05 13.5,47.62 13.5,48.25C13.5,48.88 13.9,49.45 14.5,49.66L22.14,52.36L9.5,56.83C8.9,57.04 8.5,57.61 8.5,58.24C8.5,58.87 8.9,59.44 9.5,59.65ZM75.5,38.24L50,47.26L24.5,38.24L50,29.22L75.5,38.24ZM49.5,62.03C49.66,62.09 49.83,62.12 50,62.12C50.17,62.12 50.34,62.09 50.5,62.03L73.36,53.95L85.5,58.24L50,70.79L14.5,58.23L26.64,53.94L49.5,62.02L49.5,62.03Z" style="fill:white;fill-rule:nonzero;"/>
                </g>
            </g>
        </g>
    </g>
</svg>
